# xmcd
#
# Track frame offsets: 
#        150
#        17486
#        33136
#        50426
#        52988
#        70746
#        90105
#        106982
#        125231
#        145849
#        168000
#        183614
#        202644
#
# Disc length: 2999 seconds
#
# Revision: 0
# Processed by: cddbd v1.5.2PL0 Copyright (c) Steve Scherf et al.
# Submitted via: ExactAudioCopy v0.95b4
#
DISCID=9c0bb50d
DTITLE=Sounds of Blackness - Unity
DYEAR=2005
DGENRE=Gospel
TTITLE0=Unity
TTITLE1=Heaven
TTITLE2=Put the Finger on Me
TTITLE3=Interlude
TTITLE4=Trouble
TTITLE5=Try
TTITLE6=A Second Chance
TTITLE7=They That Wait
TTITLE8=Over My Head
TTITLE9=Children of God
TTITLE10=I'm Movin'
TTITLE11=Be Encouraged
TTITLE12=Life
EXTD=
EXTT0=
EXTT1=
EXTT2=
EXTT3=
EXTT4=
EXTT5=
EXTT6=
EXTT7=
EXTT8=
EXTT9=
EXTT10=
EXTT11=
EXTT12=
PLAYORDER=
